<svg baseProfile="full" height="500" version="1.1" width="500" xmlns="http://www.w3.org/2000/svg" xmlns:ev="http://www.w3.org/2001/xml-events" xmlns:xlink="http://www.w3.org/1999/xlink"><defs /><rect fill="#FFFFFF" height="493.82454280413464" width="499.9999999999999" x="0" y="0" /><rect fill="#000000" height="438.510469122714" width="444.6859263185793" x="27.657036840710308" y="27.657036840710308" /><path d="M 444.69917837264774 402.95520805724885 l 16.88311688311688 27.657036840710308 l 0 5.898224224754835 l -33.76623376623376 0 l 0 -5.898224224754835 z" fill="#000000" stroke="#FFFFFF" stroke-width="2" /><path d="M 410.93294460641397 397.05698383249404 l 33.76623376623376 0 l 0 5.898224224754835 l -16.88311688311688 27.657036840710308 l -16.88311688311688 -27.657036840710308 z" fill="#FAFD28" stroke="#FFFFFF" stroke-width="2" /><path d="M 410.93294460641397 402.95520805724885 l 16.88311688311688 27.657036840710308 l 0 5.898224224754835 l -33.76623376623376 0 l 0 -5.898224224754835 z" fill="#1CEC12" stroke="#FFFFFF" stroke-width="2" /><path d="M 377.1667108401802 397.05698383249404 l 33.76623376623376 0 l 0 5.898224224754835 l -16.88311688311688 27.657036840710308 l -16.88311688311688 -27.657036840710308 z" fill="#DF0203" stroke="#FFFFFF" stroke-width="2" /><path d="M 377.1667108401802 402.95520805724885 l 16.88311688311688 27.657036840710308 l 0 5.898224224754835 l -33.76623376623376 0 l 0 -5.898224224754835 z" fill="#FAFAFA" stroke="#FFFFFF" stroke-width="2" /><path d="M 343.40047707394643 397.05698383249404 l 33.76623376623376 0 l 0 5.898224224754835 l -16.88311688311688 27.657036840710308 l -16.88311688311688 -27.657036840710308 z" fill="#1EF6EE" stroke="#FFFFFF" stroke-width="2" /><path d="M 343.40047707394643 402.95520805724885 l 16.88311688311688 27.657036840710308 l 0 5.898224224754835 l -33.76623376623376 0 l 0 -5.898224224754835 z" fill="#F38BED" stroke="#FFFFFF" stroke-width="2" /><path d="M 309.63424330771267 397.05698383249404 l 33.76623376623376 0 l 0 5.898224224754835 l -16.88311688311688 27.657036840710308 l -16.88311688311688 -27.657036840710308 z" fill="#1833DE" stroke="#FFFFFF" stroke-width="2" /><path d="M 309.63424330771267 402.95520805724885 l 16.88311688311688 27.657036840710308 l 0 5.898224224754835 l -33.76623376623376 0 l 0 -5.898224224754835 z" fill="#000000" stroke="#FFFFFF" stroke-width="2" /><path d="M 275.8680095414789 397.05698383249404 l 33.76623376623376 0 l 0 5.898224224754835 l -16.88311688311688 27.657036840710308 l -16.88311688311688 -27.657036840710308 z" fill="#FAFD28" stroke="#FFFFFF" stroke-width="2" /><path d="M 275.8680095414789 402.95520805724885 l 16.88311688311688 27.657036840710308 l 0 5.898224224754835 l -33.76623376623376 0 l 0 -5.898224224754835 z" fill="#1CEC12" stroke="#FFFFFF" stroke-width="2" /><path d="M 242.1017757752451 397.05698383249404 l 33.76623376623376 0 l 0 5.898224224754835 l -16.88311688311688 27.657036840710308 l -16.88311688311688 -27.657036840710308 z" fill="#DF0203" stroke="#FFFFFF" stroke-width="2" /><path d="M 242.10177577524513 402.95520805724885 l 16.88311688311688 27.657036840710308 l 0 5.898224224754835 l -33.76623376623376 0 l 0 -5.898224224754835 z" fill="#FAFAFA" stroke="#FFFFFF" stroke-width="2" /><path d="M 208.33554200901136 397.05698383249404 l 33.76623376623376 0 l 0 5.898224224754835 l -16.88311688311688 27.657036840710308 l -16.88311688311688 -27.657036840710308 z" fill="#1EF6EE" stroke="#FFFFFF" stroke-width="2" /><path d="M 208.33554200901136 402.95520805724885 l 16.88311688311688 27.657036840710308 l 0 5.898224224754835 l -33.76623376623376 0 l 0 -5.898224224754835 z" fill="#F38BED" stroke="#FFFFFF" stroke-width="2" /><path d="M 174.5693082427776 397.05698383249404 l 33.76623376623376 0 l 0 5.898224224754835 l -16.88311688311688 27.657036840710308 l -16.88311688311688 -27.657036840710308 z" fill="#1833DE" stroke="#FFFFFF" stroke-width="2" /><path d="M 174.5693082427776 402.95520805724885 l 16.88311688311688 27.657036840710308 l 0 5.898224224754835 l -33.76623376623376 0 l 0 -5.898224224754835 z" fill="#FAFAFA" stroke="#FFFFFF" stroke-width="2" /><path d="M 140.80307447654383 397.05698383249404 l 33.76623376623376 0 l 0 5.898224224754835 l -16.88311688311688 27.657036840710308 l -16.88311688311688 -27.657036840710308 z" fill="#1CEC12" stroke="#FFFFFF" stroke-width="2" /><path d="M 140.80307447654386 402.95520805724885 l 16.88311688311688 27.657036840710308 l 0 5.898224224754835 l -33.76623376623376 0 l 0 -5.898224224754835 z" fill="#000000" stroke="#FFFFFF" stroke-width="2" /><path d="M 107.03684071031009 397.05698383249404 l 33.76623376623376 0 l 0 5.898224224754835 l -16.88311688311688 27.657036840710308 l -16.88311688311688 -27.657036840710308 z" fill="#1EF6EE" stroke="#FFFFFF" stroke-width="2" /><path d="M 107.03684071031009 402.95520805724885 l 16.88311688311688 27.657036840710308 l 0 5.898224224754835 l -33.76623376623376 0 l 0 -5.898224224754835 z" fill="#1EF6EE" stroke="#FFFFFF" stroke-width="2" /><path d="M 73.27060694407632 397.05698383249404 l 33.76623376623376 0 l 0 5.898224224754835 l -16.88311688311688 27.657036840710308 l -16.88311688311688 -27.657036840710308 z" fill="#FAFAFA" stroke="#FFFFFF" stroke-width="2" /><path d="M 73.27060694407632 402.95520805724885 l 16.88311688311688 27.657036840710308 l 0 5.898224224754835 l -33.76623376623376 0 l 0 -5.898224224754835 z" fill="#000000" stroke="#FFFFFF" stroke-width="2" /><path d="M 39.50437317784256 397.05698383249404 l 33.76623376623376 0 l 0 5.898224224754835 l -16.88311688311688 27.657036840710308 l -16.88311688311688 -27.657036840710308 z" fill="#FAFAFA" stroke="#FFFFFF" stroke-width="2" /><path d="M 444.69917837264774 367.39994699178374 l 16.88311688311688 27.657036840710308 l 0 5.898224224754835 l -33.76623376623376 0 l 0 -5.898224224754835 z" fill="#1CEC12" stroke="#FFFFFF" stroke-width="2" /><path d="M 410.93294460641397 361.5017227670289 l 33.76623376623376 0 l 0 5.898224224754835 l -16.88311688311688 27.657036840710308 l -16.88311688311688 -27.657036840710308 z" fill="#F38BED" stroke="#FFFFFF" stroke-width="2" /><path d="M 410.93294460641397 367.39994699178374 l 16.88311688311688 27.657036840710308 l 0 5.898224224754835 l -33.76623376623376 0 l 0 -5.898224224754835 z" fill="#1EF6EE" stroke="#FFFFFF" stroke-width="2" /><path d="M 377.1667108401802 361.5017227670289 l 33.76623376623376 0 l 0 5.898224224754835 l -16.88311688311688 27.657036840710308 l -16.88311688311688 -27.657036840710308 z" fill="#FAFAFA" stroke="#FFFFFF" stroke-width="2" /><path d="M 377.1667108401802 367.39994699178374 l 16.88311688311688 27.657036840710308 l 0 5.898224224754835 l -33.76623376623376 0 l 0 -5.898224224754835 z" fill="#FAFD28" stroke="#FFFFFF" stroke-width="2" /><path d="M 343.40047707394643 361.5017227670289 l 33.76623376623376 0 l 0 5.898224224754835 l -16.88311688311688 27.657036840710308 l -16.88311688311688 -27.657036840710308 z" fill="#FAFAFA" stroke="#FFFFFF" stroke-width="2" /><path d="M 343.40047707394643 367.39994699178374 l 16.88311688311688 27.657036840710308 l 0 5.898224224754835 l -33.76623376623376 0 l 0 -5.898224224754835 z" fill="#FAFAFA" stroke="#FFFFFF" stroke-width="2" /><path d="M 309.63424330771267 361.5017227670289 l 33.76623376623376 0 l 0 5.898224224754835 l -16.88311688311688 27.657036840710308 l -16.88311688311688 -27.657036840710308 z" fill="#FAFAFA" stroke="#FFFFFF" stroke-width="2" /><path d="M 309.63424330771267 367.39994699178374 l 16.88311688311688 27.657036840710308 l 0 5.898224224754835 l -33.76623376623376 0 l 0 -5.898224224754835 z" fill="#1EF6EE" stroke="#FFFFFF" stroke-width="2" /><path d="M 275.8680095414789 361.5017227670289 l 33.76623376623376 0 l 0 5.898224224754835 l -16.88311688311688 27.657036840710308 l -16.88311688311688 -27.657036840710308 z" fill="#FAFAFA" stroke="#FFFFFF" stroke-width="2" /><path d="M 275.8680095414789 367.39994699178374 l 16.88311688311688 27.657036840710308 l 0 5.898224224754835 l -33.76623376623376 0 l 0 -5.898224224754835 z" fill="#1CEC12" stroke="#FFFFFF" stroke-width="2" /><path d="M 242.1017757752451 361.5017227670289 l 33.76623376623376 0 l 0 5.898224224754835 l -16.88311688311688 27.657036840710308 l -16.88311688311688 -27.657036840710308 z" fill="#F38BED" stroke="#FFFFFF" stroke-width="2" /><path d="M 242.10177577524513 367.39994699178374 l 16.88311688311688 27.657036840710308 l 0 5.898224224754835 l -33.76623376623376 0 l 0 -5.898224224754835 z" fill="#000000" stroke="#FFFFFF" stroke-width="2" /><path d="M 208.33554200901136 361.5017227670289 l 33.76623376623376 0 l 0 5.898224224754835 l -16.88311688311688 27.657036840710308 l -16.88311688311688 -27.657036840710308 z" fill="#FAFAFA" stroke="#FFFFFF" stroke-width="2" /><path d="M 208.33554200901136 367.39994699178374 l 16.88311688311688 27.657036840710308 l 0 5.898224224754835 l -33.76623376623376 0 l 0 -5.898224224754835 z" fill="#FAFD28" stroke="#FFFFFF" stroke-width="2" /><path d="M 174.5693082427776 361.5017227670289 l 33.76623376623376 0 l 0 5.898224224754835 l -16.88311688311688 27.657036840710308 l -16.88311688311688 -27.657036840710308 z" fill="#1EF6EE" stroke="#FFFFFF" stroke-width="2" /><path d="M 174.5693082427776 367.39994699178374 l 16.88311688311688 27.657036840710308 l 0 5.898224224754835 l -33.76623376623376 0 l 0 -5.898224224754835 z" fill="#DF0203" stroke="#FFFFFF" stroke-width="2" /><path d="M 140.80307447654383 361.5017227670289 l 33.76623376623376 0 l 0 5.898224224754835 l -16.88311688311688 27.657036840710308 l -16.88311688311688 -27.657036840710308 z" fill="#F38BED" stroke="#FFFFFF" stroke-width="2" /><path d="M 140.80307447654386 367.39994699178374 l 16.88311688311688 27.657036840710308 l 0 5.898224224754835 l -33.76623376623376 0 l 0 -5.898224224754835 z" fill="#000000" stroke="#FFFFFF" stroke-width="2" /><path d="M 107.03684071031009 361.5017227670289 l 33.76623376623376 0 l 0 5.898224224754835 l -16.88311688311688 27.657036840710308 l -16.88311688311688 -27.657036840710308 z" fill="#FAFAFA" stroke="#FFFFFF" stroke-width="2" /><path d="M 107.03684071031009 367.39994699178374 l 16.88311688311688 27.657036840710308 l 0 5.898224224754835 l -33.76623376623376 0 l 0 -5.898224224754835 z" fill="#DF0203" stroke="#FFFFFF" stroke-width="2" /><path d="M 73.27060694407632 361.5017227670289 l 33.76623376623376 0 l 0 5.898224224754835 l -16.88311688311688 27.657036840710308 l -16.88311688311688 -27.657036840710308 z" fill="#F38BED" stroke="#FFFFFF" stroke-width="2" /><path d="M 73.27060694407632 367.39994699178374 l 16.88311688311688 27.657036840710308 l 0 5.898224224754835 l -33.76623376623376 0 l 0 -5.898224224754835 z" fill="#1833DE" stroke="#FFFFFF" stroke-width="2" /><path d="M 39.50437317784256 361.5017227670289 l 33.76623376623376 0 l 0 5.898224224754835 l -16.88311688311688 27.657036840710308 l -16.88311688311688 -27.657036840710308 z" fill="#1EF6EE" stroke="#FFFFFF" stroke-width="2" /><path d="M 444.69917837264774 331.84468592631856 l 16.88311688311688 27.657036840710308 l 0 5.898224224754835 l -33.76623376623376 0 l 0 -5.898224224754835 z" fill="#000000" stroke="#FFFFFF" stroke-width="2" /><path d="M 410.93294460641397 325.94646170156375 l 33.76623376623376 0 l 0 5.898224224754835 l -16.88311688311688 27.657036840710308 l -16.88311688311688 -27.657036840710308 z" fill="#FAFAFA" stroke="#FFFFFF" stroke-width="2" /><path d="M 410.93294460641397 331.84468592631856 l 16.88311688311688 27.657036840710308 l 0 5.898224224754835 l -33.76623376623376 0 l 0 -5.898224224754835 z" fill="#000000" stroke="#FFFFFF" stroke-width="2" /><path d="M 377.1667108401802 325.94646170156375 l 33.76623376623376 0 l 0 5.898224224754835 l -16.88311688311688 27.657036840710308 l -16.88311688311688 -27.657036840710308 z" fill="#1EF6EE" stroke="#FFFFFF" stroke-width="2" /><path d="M 377.1667108401802 331.84468592631856 l 16.88311688311688 27.657036840710308 l 0 5.898224224754835 l -33.76623376623376 0 l 0 -5.898224224754835 z" fill="#FAFD28" stroke="#FFFFFF" stroke-width="2" /><path d="M 343.40047707394643 325.94646170156375 l 33.76623376623376 0 l 0 5.898224224754835 l -16.88311688311688 27.657036840710308 l -16.88311688311688 -27.657036840710308 z" fill="#FAFAFA" stroke="#FFFFFF" stroke-width="2" /><path d="M 343.40047707394643 331.84468592631856 l 16.88311688311688 27.657036840710308 l 0 5.898224224754835 l -33.76623376623376 0 l 0 -5.898224224754835 z" fill="#1CEC12" stroke="#FFFFFF" stroke-width="2" /><path d="M 309.63424330771267 325.94646170156375 l 33.76623376623376 0 l 0 5.898224224754835 l -16.88311688311688 27.657036840710308 l -16.88311688311688 -27.657036840710308 z" fill="#F38BED" stroke="#FFFFFF" stroke-width="2" /><path d="M 309.63424330771267 331.84468592631856 l 16.88311688311688 27.657036840710308 l 0 5.898224224754835 l -33.76623376623376 0 l 0 -5.898224224754835 z" fill="#FAFAFA" stroke="#FFFFFF" stroke-width="2" /><path d="M 275.8680095414789 325.94646170156375 l 33.76623376623376 0 l 0 5.898224224754835 l -16.88311688311688 27.657036840710308 l -16.88311688311688 -27.657036840710308 z" fill="#FAFAFA" stroke="#FFFFFF" stroke-width="2" /><path d="M 275.8680095414789 331.84468592631856 l 16.88311688311688 27.657036840710308 l 0 5.898224224754835 l -33.76623376623376 0 l 0 -5.898224224754835 z" fill="#FAFAFA" stroke="#FFFFFF" stroke-width="2" /><path d="M 242.1017757752451 325.94646170156375 l 33.76623376623376 0 l 0 5.898224224754835 l -16.88311688311688 27.657036840710308 l -16.88311688311688 -27.657036840710308 z" fill="#1EF6EE" stroke="#FFFFFF" stroke-width="2" /><path d="M 242.10177577524513 331.84468592631856 l 16.88311688311688 27.657036840710308 l 0 5.898224224754835 l -33.76623376623376 0 l 0 -5.898224224754835 z" fill="#000000" stroke="#FFFFFF" stroke-width="2" /><path d="M 208.33554200901136 325.94646170156375 l 33.76623376623376 0 l 0 5.898224224754835 l -16.88311688311688 27.657036840710308 l -16.88311688311688 -27.657036840710308 z" fill="#FAFAFA" stroke="#FFFFFF" stroke-width="2" /><path d="M 208.33554200901136 331.84468592631856 l 16.88311688311688 27.657036840710308 l 0 5.898224224754835 l -33.76623376623376 0 l 0 -5.898224224754835 z" fill="#FAFD28" stroke="#FFFFFF" stroke-width="2" /><path d="M 174.5693082427776 325.94646170156375 l 33.76623376623376 0 l 0 5.898224224754835 l -16.88311688311688 27.657036840710308 l -16.88311688311688 -27.657036840710308 z" fill="#FAFD28" stroke="#FFFFFF" stroke-width="2" /><path d="M 174.5693082427776 331.84468592631856 l 16.88311688311688 27.657036840710308 l 0 5.898224224754835 l -33.76623376623376 0 l 0 -5.898224224754835 z" fill="#000000" stroke="#FFFFFF" stroke-width="2" /><path d="M 140.80307447654383 325.94646170156375 l 33.76623376623376 0 l 0 5.898224224754835 l -16.88311688311688 27.657036840710308 l -16.88311688311688 -27.657036840710308 z" fill="#FAFAFA" stroke="#FFFFFF" stroke-width="2" /><path d="M 140.80307447654386 331.84468592631856 l 16.88311688311688 27.657036840710308 l 0 5.898224224754835 l -33.76623376623376 0 l 0 -5.898224224754835 z" fill="#FAFAFA" stroke="#FFFFFF" stroke-width="2" /><path d="M 107.03684071031009 325.94646170156375 l 33.76623376623376 0 l 0 5.898224224754835 l -16.88311688311688 27.657036840710308 l -16.88311688311688 -27.657036840710308 z" fill="#FAFAFA" stroke="#FFFFFF" stroke-width="2" /><path d="M 107.03684071031009 331.84468592631856 l 16.88311688311688 27.657036840710308 l 0 5.898224224754835 l -33.76623376623376 0 l 0 -5.898224224754835 z" fill="#1833DE" stroke="#FFFFFF" stroke-width="2" /><path d="M 73.27060694407632 325.94646170156375 l 33.76623376623376 0 l 0 5.898224224754835 l -16.88311688311688 27.657036840710308 l -16.88311688311688 -27.657036840710308 z" fill="#1EF6EE" stroke="#FFFFFF" stroke-width="2" /><path d="M 73.27060694407632 331.84468592631856 l 16.88311688311688 27.657036840710308 l 0 5.898224224754835 l -33.76623376623376 0 l 0 -5.898224224754835 z" fill="#F38BED" stroke="#FFFFFF" stroke-width="2" /><path d="M 39.50437317784256 325.94646170156375 l 33.76623376623376 0 l 0 5.898224224754835 l -16.88311688311688 27.657036840710308 l -16.88311688311688 -27.657036840710308 z" fill="#1EF6EE" stroke="#FFFFFF" stroke-width="2" /><path d="M 444.69917837264774 296.2894248608534 l 16.88311688311688 27.657036840710308 l 0 5.898224224754835 l -33.76623376623376 0 l 0 -5.898224224754835 z" fill="#1833DE" stroke="#FFFFFF" stroke-width="2" /><path d="M 410.93294460641397 290.3912006360986 l 33.76623376623376 0 l 0 5.898224224754835 l -16.88311688311688 27.657036840710308 l -16.88311688311688 -27.657036840710308 z" fill="#FAFAFA" stroke="#FFFFFF" stroke-width="2" /><path d="M 410.93294460641397 296.2894248608534 l 16.88311688311688 27.657036840710308 l 0 5.898224224754835 l -33.76623376623376 0 l 0 -5.898224224754835 z" fill="#FAFAFA" stroke="#FFFFFF" stroke-width="2" /><path d="M 377.1667108401802 290.3912006360986 l 33.76623376623376 0 l 0 5.898224224754835 l -16.88311688311688 27.657036840710308 l -16.88311688311688 -27.657036840710308 z" fill="#F38BED" stroke="#FFFFFF" stroke-width="2" /><path d="M 377.1667108401802 296.2894248608534 l 16.88311688311688 27.657036840710308 l 0 5.898224224754835 l -33.76623376623376 0 l 0 -5.898224224754835 z" fill="#000000" stroke="#FFFFFF" stroke-width="2" /><path d="M 343.40047707394643 290.3912006360986 l 33.76623376623376 0 l 0 5.898224224754835 l -16.88311688311688 27.657036840710308 l -16.88311688311688 -27.657036840710308 z" fill="#FAFAFA" stroke="#FFFFFF" stroke-width="2" /><path d="M 343.40047707394643 296.2894248608534 l 16.88311688311688 27.657036840710308 l 0 5.898224224754835 l -33.76623376623376 0 l 0 -5.898224224754835 z" fill="#1833DE" stroke="#FFFFFF" stroke-width="2" /><path d="M 309.63424330771267 290.3912006360986 l 33.76623376623376 0 l 0 5.898224224754835 l -16.88311688311688 27.657036840710308 l -16.88311688311688 -27.657036840710308 z" fill="#F38BED" stroke="#FFFFFF" stroke-width="2" /><path d="M 309.63424330771267 296.2894248608534 l 16.88311688311688 27.657036840710308 l 0 5.898224224754835 l -33.76623376623376 0 l 0 -5.898224224754835 z" fill="#FAFD28" stroke="#FFFFFF" stroke-width="2" /><path d="M 275.8680095414789 290.3912006360986 l 33.76623376623376 0 l 0 5.898224224754835 l -16.88311688311688 27.657036840710308 l -16.88311688311688 -27.657036840710308 z" fill="#FAFAFA" stroke="#FFFFFF" stroke-width="2" /><path d="M 275.8680095414789 296.2894248608534 l 16.88311688311688 27.657036840710308 l 0 5.898224224754835 l -33.76623376623376 0 l 0 -5.898224224754835 z" fill="#F38BED" stroke="#FFFFFF" stroke-width="2" /><path d="M 242.1017757752451 290.3912006360986 l 33.76623376623376 0 l 0 5.898224224754835 l -16.88311688311688 27.657036840710308 l -16.88311688311688 -27.657036840710308 z" fill="#1EF6EE" stroke="#FFFFFF" stroke-width="2" /><path d="M 242.10177577524513 296.2894248608534 l 16.88311688311688 27.657036840710308 l 0 5.898224224754835 l -33.76623376623376 0 l 0 -5.898224224754835 z" fill="#FAFAFA" stroke="#FFFFFF" stroke-width="2" /><path d="M 208.33554200901136 290.3912006360986 l 33.76623376623376 0 l 0 5.898224224754835 l -16.88311688311688 27.657036840710308 l -16.88311688311688 -27.657036840710308 z" fill="#F38BED" stroke="#FFFFFF" stroke-width="2" /><path d="M 208.33554200901136 296.2894248608534 l 16.88311688311688 27.657036840710308 l 0 5.898224224754835 l -33.76623376623376 0 l 0 -5.898224224754835 z" fill="#000000" stroke="#FFFFFF" stroke-width="2" /><path d="M 174.5693082427776 290.3912006360986 l 33.76623376623376 0 l 0 5.898224224754835 l -16.88311688311688 27.657036840710308 l -16.88311688311688 -27.657036840710308 z" fill="#FAFAFA" stroke="#FFFFFF" stroke-width="2" /><path d="M 174.5693082427776 296.2894248608534 l 16.88311688311688 27.657036840710308 l 0 5.898224224754835 l -33.76623376623376 0 l 0 -5.898224224754835 z" fill="#FAFAFA" stroke="#FFFFFF" stroke-width="2" /><path d="M 140.80307447654383 290.3912006360986 l 33.76623376623376 0 l 0 5.898224224754835 l -16.88311688311688 27.657036840710308 l -16.88311688311688 -27.657036840710308 z" fill="#F38BED" stroke="#FFFFFF" stroke-width="2" /><path d="M 140.80307447654386 296.2894248608534 l 16.88311688311688 27.657036840710308 l 0 5.898224224754835 l -33.76623376623376 0 l 0 -5.898224224754835 z" fill="#1833DE" stroke="#FFFFFF" stroke-width="2" /><path d="M 107.03684071031009 290.3912006360986 l 33.76623376623376 0 l 0 5.898224224754835 l -16.88311688311688 27.657036840710308 l -16.88311688311688 -27.657036840710308 z" fill="#1EF6EE" stroke="#FFFFFF" stroke-width="2" /><path d="M 107.03684071031009 296.2894248608534 l 16.88311688311688 27.657036840710308 l 0 5.898224224754835 l -33.76623376623376 0 l 0 -5.898224224754835 z" fill="#000000" stroke="#FFFFFF" stroke-width="2" /><path d="M 73.27060694407632 290.3912006360986 l 33.76623376623376 0 l 0 5.898224224754835 l -16.88311688311688 27.657036840710308 l -16.88311688311688 -27.657036840710308 z" fill="#FAFAFA" stroke="#FFFFFF" stroke-width="2" /><path d="M 73.27060694407632 296.2894248608534 l 16.88311688311688 27.657036840710308 l 0 5.898224224754835 l -33.76623376623376 0 l 0 -5.898224224754835 z" fill="#1833DE" stroke="#FFFFFF" stroke-width="2" /><path d="M 39.50437317784256 290.3912006360986 l 33.76623376623376 0 l 0 5.898224224754835 l -16.88311688311688 27.657036840710308 l -16.88311688311688 -27.657036840710308 z" fill="#F38BED" stroke="#FFFFFF" stroke-width="2" /><path d="M 444.69917837264774 260.73416379538827 l 16.88311688311688 27.657036840710308 l 0 5.898224224754835 l -33.76623376623376 0 l 0 -5.898224224754835 z" fill="#1CEC12" stroke="#FFFFFF" stroke-width="2" /><path d="M 410.93294460641397 254.83593957063343 l 33.76623376623376 0 l 0 5.898224224754835 l -16.88311688311688 27.657036840710308 l -16.88311688311688 -27.657036840710308 z" fill="#F38BED" stroke="#FFFFFF" stroke-width="2" /><path d="M 410.93294460641397 260.73416379538827 l 16.88311688311688 27.657036840710308 l 0 5.898224224754835 l -33.76623376623376 0 l 0 -5.898224224754835 z" fill="#FAFD28" stroke="#FFFFFF" stroke-width="2" /><path d="M 377.1667108401802 254.83593957063343 l 33.76623376623376 0 l 0 5.898224224754835 l -16.88311688311688 27.657036840710308 l -16.88311688311688 -27.657036840710308 z" fill="#1EF6EE" stroke="#FFFFFF" stroke-width="2" /><path d="M 377.1667108401802 260.73416379538827 l 16.88311688311688 27.657036840710308 l 0 5.898224224754835 l -33.76623376623376 0 l 0 -5.898224224754835 z" fill="#FAFAFA" stroke="#FFFFFF" stroke-width="2" /><path d="M 343.40047707394643 254.83593957063343 l 33.76623376623376 0 l 0 5.898224224754835 l -16.88311688311688 27.657036840710308 l -16.88311688311688 -27.657036840710308 z" fill="#F38BED" stroke="#FFFFFF" stroke-width="2" /><path d="M 343.40047707394643 260.73416379538827 l 16.88311688311688 27.657036840710308 l 0 5.898224224754835 l -33.76623376623376 0 l 0 -5.898224224754835 z" fill="#1EF6EE" stroke="#FFFFFF" stroke-width="2" /><path d="M 309.63424330771267 254.83593957063343 l 33.76623376623376 0 l 0 5.898224224754835 l -16.88311688311688 27.657036840710308 l -16.88311688311688 -27.657036840710308 z" fill="#FAFAFA" stroke="#FFFFFF" stroke-width="2" /><path d="M 309.63424330771267 260.73416379538827 l 16.88311688311688 27.657036840710308 l 0 5.898224224754835 l -33.76623376623376 0 l 0 -5.898224224754835 z" fill="#000000" stroke="#FFFFFF" stroke-width="2" /><path d="M 275.8680095414789 254.83593957063343 l 33.76623376623376 0 l 0 5.898224224754835 l -16.88311688311688 27.657036840710308 l -16.88311688311688 -27.657036840710308 z" fill="#FAFAFA" stroke="#FFFFFF" stroke-width="2" /><path d="M 275.8680095414789 260.73416379538827 l 16.88311688311688 27.657036840710308 l 0 5.898224224754835 l -33.76623376623376 0 l 0 -5.898224224754835 z" fill="#FAFD28" stroke="#FFFFFF" stroke-width="2" /><path d="M 242.1017757752451 254.83593957063343 l 33.76623376623376 0 l 0 5.898224224754835 l -16.88311688311688 27.657036840710308 l -16.88311688311688 -27.657036840710308 z" fill="#1EF6EE" stroke="#FFFFFF" stroke-width="2" /><path d="M 242.10177577524513 260.73416379538827 l 16.88311688311688 27.657036840710308 l 0 5.898224224754835 l -33.76623376623376 0 l 0 -5.898224224754835 z" fill="#FAFAFA" stroke="#FFFFFF" stroke-width="2" /><path d="M 208.33554200901136 254.83593957063343 l 33.76623376623376 0 l 0 5.898224224754835 l -16.88311688311688 27.657036840710308 l -16.88311688311688 -27.657036840710308 z" fill="#F38BED" stroke="#FFFFFF" stroke-width="2" /><path d="M 208.33554200901136 260.73416379538827 l 16.88311688311688 27.657036840710308 l 0 5.898224224754835 l -33.76623376623376 0 l 0 -5.898224224754835 z" fill="#FAFAFA" stroke="#FFFFFF" stroke-width="2" /><path d="M 174.5693082427776 254.83593957063343 l 33.76623376623376 0 l 0 5.898224224754835 l -16.88311688311688 27.657036840710308 l -16.88311688311688 -27.657036840710308 z" fill="#1EF6EE" stroke="#FFFFFF" stroke-width="2" /><path d="M 174.5693082427776 260.73416379538827 l 16.88311688311688 27.657036840710308 l 0 5.898224224754835 l -33.76623376623376 0 l 0 -5.898224224754835 z" fill="#000000" stroke="#FFFFFF" stroke-width="2" /><path d="M 140.80307447654383 254.83593957063343 l 33.76623376623376 0 l 0 5.898224224754835 l -16.88311688311688 27.657036840710308 l -16.88311688311688 -27.657036840710308 z" fill="#FAFAFA" stroke="#FFFFFF" stroke-width="2" /><path d="M 140.80307447654386 260.73416379538827 l 16.88311688311688 27.657036840710308 l 0 5.898224224754835 l -33.76623376623376 0 l 0 -5.898224224754835 z" fill="#FAFD28" stroke="#FFFFFF" stroke-width="2" /><path d="M 107.03684071031009 254.83593957063343 l 33.76623376623376 0 l 0 5.898224224754835 l -16.88311688311688 27.657036840710308 l -16.88311688311688 -27.657036840710308 z" fill="#1EF6EE" stroke="#FFFFFF" stroke-width="2" /><path d="M 107.03684071031009 260.73416379538827 l 16.88311688311688 27.657036840710308 l 0 5.898224224754835 l -33.76623376623376 0 l 0 -5.898224224754835 z" fill="#DF0203" stroke="#FFFFFF" stroke-width="2" /><path d="M 73.27060694407632 254.83593957063343 l 33.76623376623376 0 l 0 5.898224224754835 l -16.88311688311688 27.657036840710308 l -16.88311688311688 -27.657036840710308 z" fill="#F38BED" stroke="#FFFFFF" stroke-width="2" /><path d="M 73.27060694407632 260.73416379538827 l 16.88311688311688 27.657036840710308 l 0 5.898224224754835 l -33.76623376623376 0 l 0 -5.898224224754835 z" fill="#000000" stroke="#FFFFFF" stroke-width="2" /><path d="M 39.50437317784256 254.83593957063343 l 33.76623376623376 0 l 0 5.898224224754835 l -16.88311688311688 27.657036840710308 l -16.88311688311688 -27.657036840710308 z" fill="#FAFAFA" stroke="#FFFFFF" stroke-width="2" /><path d="M 444.69917837264774 225.17890272992312 l 16.88311688311688 27.657036840710308 l 0 5.898224224754835 l -33.76623376623376 0 l 0 -5.898224224754835 z" fill="#FAFAFA" stroke="#FFFFFF" stroke-width="2" /><path d="M 410.93294460641397 219.28067850516828 l 33.76623376623376 0 l 0 5.898224224754835 l -16.88311688311688 27.657036840710308 l -16.88311688311688 -27.657036840710308 z" fill="#F38BED" stroke="#FFFFFF" stroke-width="2" /><path d="M 410.93294460641397 225.17890272992312 l 16.88311688311688 27.657036840710308 l 0 5.898224224754835 l -33.76623376623376 0 l 0 -5.898224224754835 z" fill="#000000" stroke="#FFFFFF" stroke-width="2" /><path d="M 377.1667108401802 219.28067850516828 l 33.76623376623376 0 l 0 5.898224224754835 l -16.88311688311688 27.657036840710308 l -16.88311688311688 -27.657036840710308 z" fill="#1EF6EE" stroke="#FFFFFF" stroke-width="2" /><path d="M 377.1667108401802 225.17890272992312 l 16.88311688311688 27.657036840710308 l 0 5.898224224754835 l -33.76623376623376 0 l 0 -5.898224224754835 z" fill="#1EF6EE" stroke="#FFFFFF" stroke-width="2" /><path d="M 343.40047707394643 219.28067850516828 l 33.76623376623376 0 l 0 5.898224224754835 l -16.88311688311688 27.657036840710308 l -16.88311688311688 -27.657036840710308 z" fill="#FAFAFA" stroke="#FFFFFF" stroke-width="2" /><path d="M 343.40047707394643 225.17890272992312 l 16.88311688311688 27.657036840710308 l 0 5.898224224754835 l -33.76623376623376 0 l 0 -5.898224224754835 z" fill="#1CEC12" stroke="#FFFFFF" stroke-width="2" /><path d="M 309.63424330771267 219.28067850516828 l 33.76623376623376 0 l 0 5.898224224754835 l -16.88311688311688 27.657036840710308 l -16.88311688311688 -27.657036840710308 z" fill="#F38BED" stroke="#FFFFFF" stroke-width="2" /><path d="M 309.63424330771267 225.17890272992312 l 16.88311688311688 27.657036840710308 l 0 5.898224224754835 l -33.76623376623376 0 l 0 -5.898224224754835 z" fill="#1EF6EE" stroke="#FFFFFF" stroke-width="2" /><path d="M 275.8680095414789 219.28067850516828 l 33.76623376623376 0 l 0 5.898224224754835 l -16.88311688311688 27.657036840710308 l -16.88311688311688 -27.657036840710308 z" fill="#FAFAFA" stroke="#FFFFFF" stroke-width="2" /><path d="M 275.8680095414789 225.17890272992312 l 16.88311688311688 27.657036840710308 l 0 5.898224224754835 l -33.76623376623376 0 l 0 -5.898224224754835 z" fill="#000000" stroke="#FFFFFF" stroke-width="2" /><path d="M 242.1017757752451 219.28067850516828 l 33.76623376623376 0 l 0 5.898224224754835 l -16.88311688311688 27.657036840710308 l -16.88311688311688 -27.657036840710308 z" fill="#FAFAFA" stroke="#FFFFFF" stroke-width="2" /><path d="M 242.10177577524513 225.17890272992312 l 16.88311688311688 27.657036840710308 l 0 5.898224224754835 l -33.76623376623376 0 l 0 -5.898224224754835 z" fill="#FAFD28" stroke="#FFFFFF" stroke-width="2" /><path d="M 208.33554200901136 219.28067850516828 l 33.76623376623376 0 l 0 5.898224224754835 l -16.88311688311688 27.657036840710308 l -16.88311688311688 -27.657036840710308 z" fill="#FAFAFA" stroke="#FFFFFF" stroke-width="2" /><path d="M 208.33554200901136 225.17890272992312 l 16.88311688311688 27.657036840710308 l 0 5.898224224754835 l -33.76623376623376 0 l 0 -5.898224224754835 z" fill="#F38BED" stroke="#FFFFFF" stroke-width="2" /><path d="M 174.5693082427776 219.28067850516828 l 33.76623376623376 0 l 0 5.898224224754835 l -16.88311688311688 27.657036840710308 l -16.88311688311688 -27.657036840710308 z" fill="#1EF6EE" stroke="#FFFFFF" stroke-width="2" /><path d="M 174.5693082427776 225.17890272992312 l 16.88311688311688 27.657036840710308 l 0 5.898224224754835 l -33.76623376623376 0 l 0 -5.898224224754835 z" fill="#FAFD28" stroke="#FFFFFF" stroke-width="2" /><path d="M 140.80307447654383 219.28067850516828 l 33.76623376623376 0 l 0 5.898224224754835 l -16.88311688311688 27.657036840710308 l -16.88311688311688 -27.657036840710308 z" fill="#1833DE" stroke="#FFFFFF" stroke-width="2" /><path d="M 140.80307447654386 225.17890272992312 l 16.88311688311688 27.657036840710308 l 0 5.898224224754835 l -33.76623376623376 0 l 0 -5.898224224754835 z" fill="#000000" stroke="#FFFFFF" stroke-width="2" /><path d="M 107.03684071031009 219.28067850516828 l 33.76623376623376 0 l 0 5.898224224754835 l -16.88311688311688 27.657036840710308 l -16.88311688311688 -27.657036840710308 z" fill="#FAFAFA" stroke="#FFFFFF" stroke-width="2" /><path d="M 107.03684071031009 225.17890272992312 l 16.88311688311688 27.657036840710308 l 0 5.898224224754835 l -33.76623376623376 0 l 0 -5.898224224754835 z" fill="#1EF6EE" stroke="#FFFFFF" stroke-width="2" /><path d="M 73.27060694407632 219.28067850516828 l 33.76623376623376 0 l 0 5.898224224754835 l -16.88311688311688 27.657036840710308 l -16.88311688311688 -27.657036840710308 z" fill="#FAFAFA" stroke="#FFFFFF" stroke-width="2" /><path d="M 73.27060694407632 225.17890272992312 l 16.88311688311688 27.657036840710308 l 0 5.898224224754835 l -33.76623376623376 0 l 0 -5.898224224754835 z" fill="#000000" stroke="#FFFFFF" stroke-width="2" /><path d="M 39.50437317784256 219.28067850516828 l 33.76623376623376 0 l 0 5.898224224754835 l -16.88311688311688 27.657036840710308 l -16.88311688311688 -27.657036840710308 z" fill="#1833DE" stroke="#FFFFFF" stroke-width="2" /><path d="M 444.69917837264774 189.62364166445798 l 16.88311688311688 27.657036840710308 l 0 5.898224224754835 l -33.76623376623376 0 l 0 -5.898224224754835 z" fill="#000000" stroke="#FFFFFF" stroke-width="2" /><path d="M 410.93294460641397 183.72541743970314 l 33.76623376623376 0 l 0 5.898224224754835 l -16.88311688311688 27.657036840710308 l -16.88311688311688 -27.657036840710308 z" fill="#F38BED" stroke="#FFFFFF" stroke-width="2" /><path d="M 410.93294460641397 189.62364166445798 l 16.88311688311688 27.657036840710308 l 0 5.898224224754835 l -33.76623376623376 0 l 0 -5.898224224754835 z" fill="#1EF6EE" stroke="#FFFFFF" stroke-width="2" /><path d="M 377.1667108401802 183.72541743970314 l 33.76623376623376 0 l 0 5.898224224754835 l -16.88311688311688 27.657036840710308 l -16.88311688311688 -27.657036840710308 z" fill="#FAFAFA" stroke="#FFFFFF" stroke-width="2" /><path d="M 377.1667108401802 189.62364166445798 l 16.88311688311688 27.657036840710308 l 0 5.898224224754835 l -33.76623376623376 0 l 0 -5.898224224754835 z" fill="#1CEC12" stroke="#FFFFFF" stroke-width="2" /><path d="M 343.40047707394643 183.72541743970314 l 33.76623376623376 0 l 0 5.898224224754835 l -16.88311688311688 27.657036840710308 l -16.88311688311688 -27.657036840710308 z" fill="#F38BED" stroke="#FFFFFF" stroke-width="2" /><path d="M 343.40047707394643 189.62364166445798 l 16.88311688311688 27.657036840710308 l 0 5.898224224754835 l -33.76623376623376 0 l 0 -5.898224224754835 z" fill="#FAFAFA" stroke="#FFFFFF" stroke-width="2" /><path d="M 309.63424330771267 183.72541743970314 l 33.76623376623376 0 l 0 5.898224224754835 l -16.88311688311688 27.657036840710308 l -16.88311688311688 -27.657036840710308 z" fill="#F38BED" stroke="#FFFFFF" stroke-width="2" /><path d="M 309.63424330771267 189.62364166445798 l 16.88311688311688 27.657036840710308 l 0 5.898224224754835 l -33.76623376623376 0 l 0 -5.898224224754835 z" fill="#000000" stroke="#FFFFFF" stroke-width="2" /><path d="M 275.8680095414789 183.72541743970314 l 33.76623376623376 0 l 0 5.898224224754835 l -16.88311688311688 27.657036840710308 l -16.88311688311688 -27.657036840710308 z" fill="#FAFAFA" stroke="#FFFFFF" stroke-width="2" /><path d="M 275.8680095414789 189.62364166445798 l 16.88311688311688 27.657036840710308 l 0 5.898224224754835 l -33.76623376623376 0 l 0 -5.898224224754835 z" fill="#1833DE" stroke="#FFFFFF" stroke-width="2" /><path d="M 242.1017757752451 183.72541743970314 l 33.76623376623376 0 l 0 5.898224224754835 l -16.88311688311688 27.657036840710308 l -16.88311688311688 -27.657036840710308 z" fill="#F38BED" stroke="#FFFFFF" stroke-width="2" /><path d="M 242.10177577524513 189.62364166445798 l 16.88311688311688 27.657036840710308 l 0 5.898224224754835 l -33.76623376623376 0 l 0 -5.898224224754835 z" fill="#000000" stroke="#FFFFFF" stroke-width="2" /><path d="M 208.33554200901136 183.72541743970314 l 33.76623376623376 0 l 0 5.898224224754835 l -16.88311688311688 27.657036840710308 l -16.88311688311688 -27.657036840710308 z" fill="#1EF6EE" stroke="#FFFFFF" stroke-width="2" /><path d="M 208.33554200901136 189.62364166445798 l 16.88311688311688 27.657036840710308 l 0 5.898224224754835 l -33.76623376623376 0 l 0 -5.898224224754835 z" fill="#1833DE" stroke="#FFFFFF" stroke-width="2" /><path d="M 174.5693082427776 183.72541743970314 l 33.76623376623376 0 l 0 5.898224224754835 l -16.88311688311688 27.657036840710308 l -16.88311688311688 -27.657036840710308 z" fill="#1EF6EE" stroke="#FFFFFF" stroke-width="2" /><path d="M 174.5693082427776 189.62364166445798 l 16.88311688311688 27.657036840710308 l 0 5.898224224754835 l -33.76623376623376 0 l 0 -5.898224224754835 z" fill="#000000" stroke="#FFFFFF" stroke-width="2" /><path d="M 140.80307447654383 183.72541743970314 l 33.76623376623376 0 l 0 5.898224224754835 l -16.88311688311688 27.657036840710308 l -16.88311688311688 -27.657036840710308 z" fill="#FAFAFA" stroke="#FFFFFF" stroke-width="2" /><path d="M 140.80307447654386 189.62364166445798 l 16.88311688311688 27.657036840710308 l 0 5.898224224754835 l -33.76623376623376 0 l 0 -5.898224224754835 z" fill="#DF0203" stroke="#FFFFFF" stroke-width="2" /><path d="M 107.03684071031009 183.72541743970314 l 33.76623376623376 0 l 0 5.898224224754835 l -16.88311688311688 27.657036840710308 l -16.88311688311688 -27.657036840710308 z" fill="#FAFAFA" stroke="#FFFFFF" stroke-width="2" /><path d="M 107.03684071031009 189.62364166445798 l 16.88311688311688 27.657036840710308 l 0 5.898224224754835 l -33.76623376623376 0 l 0 -5.898224224754835 z" fill="#FAFD28" stroke="#FFFFFF" stroke-width="2" /><path d="M 73.27060694407632 183.72541743970314 l 33.76623376623376 0 l 0 5.898224224754835 l -16.88311688311688 27.657036840710308 l -16.88311688311688 -27.657036840710308 z" fill="#FAFAFA" stroke="#FFFFFF" stroke-width="2" /><path d="M 73.27060694407632 189.62364166445798 l 16.88311688311688 27.657036840710308 l 0 5.898224224754835 l -33.76623376623376 0 l 0 -5.898224224754835 z" fill="#F38BED" stroke="#FFFFFF" stroke-width="2" /><path d="M 39.50437317784256 183.72541743970314 l 33.76623376623376 0 l 0 5.898224224754835 l -16.88311688311688 27.657036840710308 l -16.88311688311688 -27.657036840710308 z" fill="#1EF6EE" stroke="#FFFFFF" stroke-width="2" /><path d="M 444.69917837264774 154.06838059899283 l 16.88311688311688 27.657036840710308 l 0 5.898224224754835 l -33.76623376623376 0 l 0 -5.898224224754835 z" fill="#000000" stroke="#FFFFFF" stroke-width="2" /><path d="M 410.93294460641397 148.170156374238 l 33.76623376623376 0 l 0 5.898224224754835 l -16.88311688311688 27.657036840710308 l -16.88311688311688 -27.657036840710308 z" fill="#FAFAFA" stroke="#FFFFFF" stroke-width="2" /><path d="M 410.93294460641397 154.06838059899283 l 16.88311688311688 27.657036840710308 l 0 5.898224224754835 l -33.76623376623376 0 l 0 -5.898224224754835 z" fill="#1833DE" stroke="#FFFFFF" stroke-width="2" /><path d="M 377.1667108401802 148.170156374238 l 33.76623376623376 0 l 0 5.898224224754835 l -16.88311688311688 27.657036840710308 l -16.88311688311688 -27.657036840710308 z" fill="#F38BED" stroke="#FFFFFF" stroke-width="2" /><path d="M 377.1667108401802 154.06838059899283 l 16.88311688311688 27.657036840710308 l 0 5.898224224754835 l -33.76623376623376 0 l 0 -5.898224224754835 z" fill="#1CEC12" stroke="#FFFFFF" stroke-width="2" /><path d="M 343.40047707394643 148.170156374238 l 33.76623376623376 0 l 0 5.898224224754835 l -16.88311688311688 27.657036840710308 l -16.88311688311688 -27.657036840710308 z" fill="#F38BED" stroke="#FFFFFF" stroke-width="2" /><path d="M 343.40047707394643 154.06838059899283 l 16.88311688311688 27.657036840710308 l 0 5.898224224754835 l -33.76623376623376 0 l 0 -5.898224224754835 z" fill="#FAFD28" stroke="#FFFFFF" stroke-width="2" /><path d="M 309.63424330771267 148.170156374238 l 33.76623376623376 0 l 0 5.898224224754835 l -16.88311688311688 27.657036840710308 l -16.88311688311688 -27.657036840710308 z" fill="#1EF6EE" stroke="#FFFFFF" stroke-width="2" /><path d="M 309.63424330771267 154.06838059899283 l 16.88311688311688 27.657036840710308 l 0 5.898224224754835 l -33.76623376623376 0 l 0 -5.898224224754835 z" fill="#FAFAFA" stroke="#FFFFFF" stroke-width="2" /><path d="M 275.8680095414789 148.170156374238 l 33.76623376623376 0 l 0 5.898224224754835 l -16.88311688311688 27.657036840710308 l -16.88311688311688 -27.657036840710308 z" fill="#F38BED" stroke="#FFFFFF" stroke-width="2" /><path d="M 275.8680095414789 154.06838059899283 l 16.88311688311688 27.657036840710308 l 0 5.898224224754835 l -33.76623376623376 0 l 0 -5.898224224754835 z" fill="#1EF6EE" stroke="#FFFFFF" stroke-width="2" /><path d="M 242.1017757752451 148.170156374238 l 33.76623376623376 0 l 0 5.898224224754835 l -16.88311688311688 27.657036840710308 l -16.88311688311688 -27.657036840710308 z" fill="#FAFAFA" stroke="#FFFFFF" stroke-width="2" /><path d="M 242.10177577524513 154.06838059899283 l 16.88311688311688 27.657036840710308 l 0 5.898224224754835 l -33.76623376623376 0 l 0 -5.898224224754835 z" fill="#000000" stroke="#FFFFFF" stroke-width="2" /><path d="M 208.33554200901136 148.170156374238 l 33.76623376623376 0 l 0 5.898224224754835 l -16.88311688311688 27.657036840710308 l -16.88311688311688 -27.657036840710308 z" fill="#FAFAFA" stroke="#FFFFFF" stroke-width="2" /><path d="M 208.33554200901136 154.06838059899283 l 16.88311688311688 27.657036840710308 l 0 5.898224224754835 l -33.76623376623376 0 l 0 -5.898224224754835 z" fill="#FAFAFA" stroke="#FFFFFF" stroke-width="2" /><path d="M 174.5693082427776 148.170156374238 l 33.76623376623376 0 l 0 5.898224224754835 l -16.88311688311688 27.657036840710308 l -16.88311688311688 -27.657036840710308 z" fill="#F38BED" stroke="#FFFFFF" stroke-width="2" /><path d="M 174.5693082427776 154.06838059899283 l 16.88311688311688 27.657036840710308 l 0 5.898224224754835 l -33.76623376623376 0 l 0 -5.898224224754835 z" fill="#000000" stroke="#FFFFFF" stroke-width="2" /><path d="M 140.80307447654383 148.170156374238 l 33.76623376623376 0 l 0 5.898224224754835 l -16.88311688311688 27.657036840710308 l -16.88311688311688 -27.657036840710308 z" fill="#1EF6EE" stroke="#FFFFFF" stroke-width="2" /><path d="M 140.80307447654386 154.06838059899283 l 16.88311688311688 27.657036840710308 l 0 5.898224224754835 l -33.76623376623376 0 l 0 -5.898224224754835 z" fill="#1EF6EE" stroke="#FFFFFF" stroke-width="2" /><path d="M 107.03684071031009 148.170156374238 l 33.76623376623376 0 l 0 5.898224224754835 l -16.88311688311688 27.657036840710308 l -16.88311688311688 -27.657036840710308 z" fill="#FAFAFA" stroke="#FFFFFF" stroke-width="2" /><path d="M 107.03684071031009 154.06838059899283 l 16.88311688311688 27.657036840710308 l 0 5.898224224754835 l -33.76623376623376 0 l 0 -5.898224224754835 z" fill="#000000" stroke="#FFFFFF" stroke-width="2" /><path d="M 73.27060694407632 148.170156374238 l 33.76623376623376 0 l 0 5.898224224754835 l -16.88311688311688 27.657036840710308 l -16.88311688311688 -27.657036840710308 z" fill="#FAFAFA" stroke="#FFFFFF" stroke-width="2" /><path d="M 73.27060694407632 154.06838059899283 l 16.88311688311688 27.657036840710308 l 0 5.898224224754835 l -33.76623376623376 0 l 0 -5.898224224754835 z" fill="#FAFAFA" stroke="#FFFFFF" stroke-width="2" /><path d="M 39.50437317784256 148.170156374238 l 33.76623376623376 0 l 0 5.898224224754835 l -16.88311688311688 27.657036840710308 l -16.88311688311688 -27.657036840710308 z" fill="#FAFAFA" stroke="#FFFFFF" stroke-width="2" /><path d="M 444.69917837264774 118.51311953352769 l 16.88311688311688 27.657036840710308 l 0 5.898224224754835 l -33.76623376623376 0 l 0 -5.898224224754835 z" fill="#1EF6EE" stroke="#FFFFFF" stroke-width="2" /><path d="M 410.93294460641397 112.61489530877284 l 33.76623376623376 0 l 0 5.898224224754835 l -16.88311688311688 27.657036840710308 l -16.88311688311688 -27.657036840710308 z" fill="#FAFAFA" stroke="#FFFFFF" stroke-width="2" /><path d="M 410.93294460641397 118.51311953352769 l 16.88311688311688 27.657036840710308 l 0 5.898224224754835 l -33.76623376623376 0 l 0 -5.898224224754835 z" fill="#DF0203" stroke="#FFFFFF" stroke-width="2" /><path d="M 377.1667108401802 112.61489530877284 l 33.76623376623376 0 l 0 5.898224224754835 l -16.88311688311688 27.657036840710308 l -16.88311688311688 -27.657036840710308 z" fill="#FAFAFA" stroke="#FFFFFF" stroke-width="2" /><path d="M 377.1667108401802 118.51311953352769 l 16.88311688311688 27.657036840710308 l 0 5.898224224754835 l -33.76623376623376 0 l 0 -5.898224224754835 z" fill="#1833DE" stroke="#FFFFFF" stroke-width="2" /><path d="M 343.40047707394643 112.61489530877284 l 33.76623376623376 0 l 0 5.898224224754835 l -16.88311688311688 27.657036840710308 l -16.88311688311688 -27.657036840710308 z" fill="#1EF6EE" stroke="#FFFFFF" stroke-width="2" /><path d="M 343.40047707394643 118.51311953352769 l 16.88311688311688 27.657036840710308 l 0 5.898224224754835 l -33.76623376623376 0 l 0 -5.898224224754835 z" fill="#FAFAFA" stroke="#FFFFFF" stroke-width="2" /><path d="M 309.63424330771267 112.61489530877284 l 33.76623376623376 0 l 0 5.898224224754835 l -16.88311688311688 27.657036840710308 l -16.88311688311688 -27.657036840710308 z" fill="#FAFAFA" stroke="#FFFFFF" stroke-width="2" /><path d="M 309.63424330771267 118.51311953352769 l 16.88311688311688 27.657036840710308 l 0 5.898224224754835 l -33.76623376623376 0 l 0 -5.898224224754835 z" fill="#1EF6EE" stroke="#FFFFFF" stroke-width="2" /><path d="M 275.8680095414789 112.61489530877284 l 33.76623376623376 0 l 0 5.898224224754835 l -16.88311688311688 27.657036840710308 l -16.88311688311688 -27.657036840710308 z" fill="#FAFAFA" stroke="#FFFFFF" stroke-width="2" /><path d="M 275.8680095414789 118.51311953352769 l 16.88311688311688 27.657036840710308 l 0 5.898224224754835 l -33.76623376623376 0 l 0 -5.898224224754835 z" fill="#1CEC12" stroke="#FFFFFF" stroke-width="2" /><path d="M 242.1017757752451 112.61489530877284 l 33.76623376623376 0 l 0 5.898224224754835 l -16.88311688311688 27.657036840710308 l -16.88311688311688 -27.657036840710308 z" fill="#F38BED" stroke="#FFFFFF" stroke-width="2" /><path d="M 242.10177577524513 118.51311953352769 l 16.88311688311688 27.657036840710308 l 0 5.898224224754835 l -33.76623376623376 0 l 0 -5.898224224754835 z" fill="#1833DE" stroke="#FFFFFF" stroke-width="2" /><path d="M 208.33554200901136 112.61489530877284 l 33.76623376623376 0 l 0 5.898224224754835 l -16.88311688311688 27.657036840710308 l -16.88311688311688 -27.657036840710308 z" fill="#1833DE" stroke="#FFFFFF" stroke-width="2" /><path d="M 208.33554200901136 118.51311953352769 l 16.88311688311688 27.657036840710308 l 0 5.898224224754835 l -33.76623376623376 0 l 0 -5.898224224754835 z" fill="#000000" stroke="#FFFFFF" stroke-width="2" /><path d="M 174.5693082427776 112.61489530877284 l 33.76623376623376 0 l 0 5.898224224754835 l -16.88311688311688 27.657036840710308 l -16.88311688311688 -27.657036840710308 z" fill="#FAFD28" stroke="#FFFFFF" stroke-width="2" /><path d="M 174.5693082427776 118.51311953352769 l 16.88311688311688 27.657036840710308 l 0 5.898224224754835 l -33.76623376623376 0 l 0 -5.898224224754835 z" fill="#000000" stroke="#FFFFFF" stroke-width="2" /><path d="M 140.80307447654383 112.61489530877284 l 33.76623376623376 0 l 0 5.898224224754835 l -16.88311688311688 27.657036840710308 l -16.88311688311688 -27.657036840710308 z" fill="#1833DE" stroke="#FFFFFF" stroke-width="2" /><path d="M 140.80307447654386 118.51311953352769 l 16.88311688311688 27.657036840710308 l 0 5.898224224754835 l -33.76623376623376 0 l 0 -5.898224224754835 z" fill="#FAFD28" stroke="#FFFFFF" stroke-width="2" /><path d="M 107.03684071031009 112.61489530877284 l 33.76623376623376 0 l 0 5.898224224754835 l -16.88311688311688 27.657036840710308 l -16.88311688311688 -27.657036840710308 z" fill="#1EF6EE" stroke="#FFFFFF" stroke-width="2" /><path d="M 107.03684071031009 118.51311953352769 l 16.88311688311688 27.657036840710308 l 0 5.898224224754835 l -33.76623376623376 0 l 0 -5.898224224754835 z" fill="#F38BED" stroke="#FFFFFF" stroke-width="2" /><path d="M 73.27060694407632 112.61489530877284 l 33.76623376623376 0 l 0 5.898224224754835 l -16.88311688311688 27.657036840710308 l -16.88311688311688 -27.657036840710308 z" fill="#F38BED" stroke="#FFFFFF" stroke-width="2" /><path d="M 73.27060694407632 118.51311953352769 l 16.88311688311688 27.657036840710308 l 0 5.898224224754835 l -33.76623376623376 0 l 0 -5.898224224754835 z" fill="#000000" stroke="#FFFFFF" stroke-width="2" /><path d="M 39.50437317784256 112.61489530877284 l 33.76623376623376 0 l 0 5.898224224754835 l -16.88311688311688 27.657036840710308 l -16.88311688311688 -27.657036840710308 z" fill="#1CEC12" stroke="#FFFFFF" stroke-width="2" /><path d="M 444.69917837264774 82.95785846806254 l 16.88311688311688 27.657036840710308 l 0 5.898224224754835 l -33.76623376623376 0 l 0 -5.898224224754835 z" fill="#1833DE" stroke="#FFFFFF" stroke-width="2" /><path d="M 410.93294460641397 77.0596342433077 l 33.76623376623376 0 l 0 5.898224224754835 l -16.88311688311688 27.657036840710308 l -16.88311688311688 -27.657036840710308 z" fill="#1CEC12" stroke="#FFFFFF" stroke-width="2" /><path d="M 410.93294460641397 82.95785846806254 l 16.88311688311688 27.657036840710308 l 0 5.898224224754835 l -33.76623376623376 0 l 0 -5.898224224754835 z" fill="#FAFAFA" stroke="#FFFFFF" stroke-width="2" /><path d="M 377.1667108401802 77.0596342433077 l 33.76623376623376 0 l 0 5.898224224754835 l -16.88311688311688 27.657036840710308 l -16.88311688311688 -27.657036840710308 z" fill="#DF0203" stroke="#FFFFFF" stroke-width="2" /><path d="M 377.1667108401802 82.95785846806254 l 16.88311688311688 27.657036840710308 l 0 5.898224224754835 l -33.76623376623376 0 l 0 -5.898224224754835 z" fill="#1833DE" stroke="#FFFFFF" stroke-width="2" /><path d="M 343.40047707394643 77.0596342433077 l 33.76623376623376 0 l 0 5.898224224754835 l -16.88311688311688 27.657036840710308 l -16.88311688311688 -27.657036840710308 z" fill="#FAFAFA" stroke="#FFFFFF" stroke-width="2" /><path d="M 343.40047707394643 82.95785846806254 l 16.88311688311688 27.657036840710308 l 0 5.898224224754835 l -33.76623376623376 0 l 0 -5.898224224754835 z" fill="#F38BED" stroke="#FFFFFF" stroke-width="2" /><path d="M 309.63424330771267 77.0596342433077 l 33.76623376623376 0 l 0 5.898224224754835 l -16.88311688311688 27.657036840710308 l -16.88311688311688 -27.657036840710308 z" fill="#1CEC12" stroke="#FFFFFF" stroke-width="2" /><path d="M 309.63424330771267 82.95785846806254 l 16.88311688311688 27.657036840710308 l 0 5.898224224754835 l -33.76623376623376 0 l 0 -5.898224224754835 z" fill="#FAFD28" stroke="#FFFFFF" stroke-width="2" /><path d="M 275.8680095414789 77.0596342433077 l 33.76623376623376 0 l 0 5.898224224754835 l -16.88311688311688 27.657036840710308 l -16.88311688311688 -27.657036840710308 z" fill="#FAFD28" stroke="#FFFFFF" stroke-width="2" /><path d="M 275.8680095414789 82.95785846806254 l 16.88311688311688 27.657036840710308 l 0 5.898224224754835 l -33.76623376623376 0 l 0 -5.898224224754835 z" fill="#1CEC12" stroke="#FFFFFF" stroke-width="2" /><path d="M 242.1017757752451 77.0596342433077 l 33.76623376623376 0 l 0 5.898224224754835 l -16.88311688311688 27.657036840710308 l -16.88311688311688 -27.657036840710308 z" fill="#FAFD28" stroke="#FFFFFF" stroke-width="2" /><path d="M 242.10177577524513 82.95785846806254 l 16.88311688311688 27.657036840710308 l 0 5.898224224754835 l -33.76623376623376 0 l 0 -5.898224224754835 z" fill="#1833DE" stroke="#FFFFFF" stroke-width="2" /><path d="M 208.33554200901136 77.0596342433077 l 33.76623376623376 0 l 0 5.898224224754835 l -16.88311688311688 27.657036840710308 l -16.88311688311688 -27.657036840710308 z" fill="#1CEC12" stroke="#FFFFFF" stroke-width="2" /><path d="M 208.33554200901136 82.95785846806254 l 16.88311688311688 27.657036840710308 l 0 5.898224224754835 l -33.76623376623376 0 l 0 -5.898224224754835 z" fill="#FAFD28" stroke="#FFFFFF" stroke-width="2" /><path d="M 174.5693082427776 77.0596342433077 l 33.76623376623376 0 l 0 5.898224224754835 l -16.88311688311688 27.657036840710308 l -16.88311688311688 -27.657036840710308 z" fill="#1CEC12" stroke="#FFFFFF" stroke-width="2" /><path d="M 174.5693082427776 82.95785846806254 l 16.88311688311688 27.657036840710308 l 0 5.898224224754835 l -33.76623376623376 0 l 0 -5.898224224754835 z" fill="#FAFAFA" stroke="#FFFFFF" stroke-width="2" /><path d="M 140.80307447654383 77.0596342433077 l 33.76623376623376 0 l 0 5.898224224754835 l -16.88311688311688 27.657036840710308 l -16.88311688311688 -27.657036840710308 z" fill="#FAFD28" stroke="#FFFFFF" stroke-width="2" /><path d="M 140.80307447654386 82.95785846806254 l 16.88311688311688 27.657036840710308 l 0 5.898224224754835 l -33.76623376623376 0 l 0 -5.898224224754835 z" fill="#FAFD28" stroke="#FFFFFF" stroke-width="2" /><path d="M 107.03684071031009 77.0596342433077 l 33.76623376623376 0 l 0 5.898224224754835 l -16.88311688311688 27.657036840710308 l -16.88311688311688 -27.657036840710308 z" fill="#1CEC12" stroke="#FFFFFF" stroke-width="2" /><path d="M 107.03684071031009 82.95785846806254 l 16.88311688311688 27.657036840710308 l 0 5.898224224754835 l -33.76623376623376 0 l 0 -5.898224224754835 z" fill="#1833DE" stroke="#FFFFFF" stroke-width="2" /><path d="M 73.27060694407632 77.0596342433077 l 33.76623376623376 0 l 0 5.898224224754835 l -16.88311688311688 27.657036840710308 l -16.88311688311688 -27.657036840710308 z" fill="#1EF6EE" stroke="#FFFFFF" stroke-width="2" /><path d="M 73.27060694407632 82.95785846806254 l 16.88311688311688 27.657036840710308 l 0 5.898224224754835 l -33.76623376623376 0 l 0 -5.898224224754835 z" fill="#DF0203" stroke="#FFFFFF" stroke-width="2" /><path d="M 39.50437317784256 77.0596342433077 l 33.76623376623376 0 l 0 5.898224224754835 l -16.88311688311688 27.657036840710308 l -16.88311688311688 -27.657036840710308 z" fill="#DF0203" stroke="#FFFFFF" stroke-width="2" /><path d="M 444.69917837264774 47.402597402597394 l 16.88311688311688 27.657036840710308 l 0 5.898224224754835 l -33.76623376623376 0 l 0 -5.898224224754835 z" fill="#FAFD28" stroke="#FFFFFF" stroke-width="2" /><path d="M 410.93294460641397 41.50437317784256 l 33.76623376623376 0 l 0 5.898224224754835 l -16.88311688311688 27.657036840710308 l -16.88311688311688 -27.657036840710308 z" fill="#FAFD28" stroke="#FFFFFF" stroke-width="2" /><path d="M 410.93294460641397 47.402597402597394 l 16.88311688311688 27.657036840710308 l 0 5.898224224754835 l -33.76623376623376 0 l 0 -5.898224224754835 z" fill="#000000" stroke="#FFFFFF" stroke-width="2" /><path d="M 377.1667108401802 41.50437317784256 l 33.76623376623376 0 l 0 5.898224224754835 l -16.88311688311688 27.657036840710308 l -16.88311688311688 -27.657036840710308 z" fill="#000000" stroke="#FFFFFF" stroke-width="2" /><path d="M 377.1667108401802 47.402597402597394 l 16.88311688311688 27.657036840710308 l 0 5.898224224754835 l -33.76623376623376 0 l 0 -5.898224224754835 z" fill="#1EF6EE" stroke="#FFFFFF" stroke-width="2" /><path d="M 343.40047707394643 41.50437317784256 l 33.76623376623376 0 l 0 5.898224224754835 l -16.88311688311688 27.657036840710308 l -16.88311688311688 -27.657036840710308 z" fill="#FAFAFA" stroke="#FFFFFF" stroke-width="2" /><path d="M 343.40047707394643 47.402597402597394 l 16.88311688311688 27.657036840710308 l 0 5.898224224754835 l -33.76623376623376 0 l 0 -5.898224224754835 z" fill="#1833DE" stroke="#FFFFFF" stroke-width="2" /><path d="M 309.63424330771267 41.50437317784256 l 33.76623376623376 0 l 0 5.898224224754835 l -16.88311688311688 27.657036840710308 l -16.88311688311688 -27.657036840710308 z" fill="#1833DE" stroke="#FFFFFF" stroke-width="2" /><path d="M 309.63424330771267 47.402597402597394 l 16.88311688311688 27.657036840710308 l 0 5.898224224754835 l -33.76623376623376 0 l 0 -5.898224224754835 z" fill="#FAFD28" stroke="#FFFFFF" stroke-width="2" /><path d="M 275.8680095414789 41.50437317784256 l 33.76623376623376 0 l 0 5.898224224754835 l -16.88311688311688 27.657036840710308 l -16.88311688311688 -27.657036840710308 z" fill="#1833DE" stroke="#FFFFFF" stroke-width="2" /><path d="M 275.8680095414789 47.402597402597394 l 16.88311688311688 27.657036840710308 l 0 5.898224224754835 l -33.76623376623376 0 l 0 -5.898224224754835 z" fill="#1EF6EE" stroke="#FFFFFF" stroke-width="2" /><path d="M 242.1017757752451 41.50437317784256 l 33.76623376623376 0 l 0 5.898224224754835 l -16.88311688311688 27.657036840710308 l -16.88311688311688 -27.657036840710308 z" fill="#FAFD28" stroke="#FFFFFF" stroke-width="2" /><path d="M 242.10177577524513 47.402597402597394 l 16.88311688311688 27.657036840710308 l 0 5.898224224754835 l -33.76623376623376 0 l 0 -5.898224224754835 z" fill="#1CEC12" stroke="#FFFFFF" stroke-width="2" /><path d="M 208.33554200901136 41.50437317784256 l 33.76623376623376 0 l 0 5.898224224754835 l -16.88311688311688 27.657036840710308 l -16.88311688311688 -27.657036840710308 z" fill="#1CEC12" stroke="#FFFFFF" stroke-width="2" /><path d="M 208.33554200901136 47.402597402597394 l 16.88311688311688 27.657036840710308 l 0 5.898224224754835 l -33.76623376623376 0 l 0 -5.898224224754835 z" fill="#1CEC12" stroke="#FFFFFF" stroke-width="2" /><path d="M 174.5693082427776 41.50437317784256 l 33.76623376623376 0 l 0 5.898224224754835 l -16.88311688311688 27.657036840710308 l -16.88311688311688 -27.657036840710308 z" fill="#000000" stroke="#FFFFFF" stroke-width="2" /><path d="M 174.5693082427776 47.402597402597394 l 16.88311688311688 27.657036840710308 l 0 5.898224224754835 l -33.76623376623376 0 l 0 -5.898224224754835 z" fill="#1833DE" stroke="#FFFFFF" stroke-width="2" /><path d="M 140.80307447654383 41.50437317784256 l 33.76623376623376 0 l 0 5.898224224754835 l -16.88311688311688 27.657036840710308 l -16.88311688311688 -27.657036840710308 z" fill="#1EF6EE" stroke="#FFFFFF" stroke-width="2" /><path d="M 140.80307447654386 47.402597402597394 l 16.88311688311688 27.657036840710308 l 0 5.898224224754835 l -33.76623376623376 0 l 0 -5.898224224754835 z" fill="#DF0203" stroke="#FFFFFF" stroke-width="2" /><path d="M 107.03684071031009 41.50437317784256 l 33.76623376623376 0 l 0 5.898224224754835 l -16.88311688311688 27.657036840710308 l -16.88311688311688 -27.657036840710308 z" fill="#1EF6EE" stroke="#FFFFFF" stroke-width="2" /><path d="M 107.03684071031009 47.402597402597394 l 16.88311688311688 27.657036840710308 l 0 5.898224224754835 l -33.76623376623376 0 l 0 -5.898224224754835 z" fill="#1EF6EE" stroke="#FFFFFF" stroke-width="2" /><path d="M 73.27060694407632 41.50437317784256 l 33.76623376623376 0 l 0 5.898224224754835 l -16.88311688311688 27.657036840710308 l -16.88311688311688 -27.657036840710308 z" fill="#FAFD28" stroke="#FFFFFF" stroke-width="2" /><path d="M 73.27060694407632 47.402597402597394 l 16.88311688311688 27.657036840710308 l 0 5.898224224754835 l -33.76623376623376 0 l 0 -5.898224224754835 z" fill="#1CEC12" stroke="#FFFFFF" stroke-width="2" /><path d="M 39.50437317784256 41.50437317784256 l 33.76623376623376 0 l 0 5.898224224754835 l -16.88311688311688 27.657036840710308 l -16.88311688311688 -27.657036840710308 z" fill="#000000" stroke="#FFFFFF" stroke-width="2" /><rect fill="#FFFFFF" height="7.898224224754835" width="424.0912536443148" x="38.20437317784256" y="39.50437317784256" /><rect fill="#FFFFFF" height="7.898224224754835" width="424.0912536443148" x="38.20437317784256" y="75.0596342433077" /><rect fill="#FFFFFF" height="7.898224224754835" width="424.0912536443148" x="38.20437317784256" y="110.61489530877284" /><rect fill="#FFFFFF" height="7.898224224754835" width="424.0912536443148" x="38.20437317784256" y="146.170156374238" /><rect fill="#FFFFFF" height="7.898224224754835" width="424.0912536443148" x="38.20437317784256" y="181.72541743970314" /><rect fill="#FFFFFF" height="7.898224224754835" width="424.0912536443148" x="38.20437317784256" y="217.28067850516828" /><rect fill="#FFFFFF" height="7.898224224754835" width="424.0912536443148" x="38.20437317784256" y="252.83593957063343" /><rect fill="#FFFFFF" height="7.898224224754835" width="424.0912536443148" x="38.20437317784256" y="288.3912006360986" /><rect fill="#FFFFFF" height="7.898224224754835" width="424.0912536443148" x="38.20437317784256" y="323.94646170156375" /><rect fill="#FFFFFF" height="7.898224224754835" width="424.0912536443148" x="38.20437317784256" y="359.5017227670289" /><rect fill="#FFFFFF" height="7.898224224754835" width="424.0912536443148" x="38.20437317784256" y="395.05698383249404" /><rect fill="#FFFFFF" height="7.898224224754835" width="424.0912536443148" x="38.20437317784256" y="430.61224489795916" /></svg>